<?xml version="1.0" standalone="no"?>
<!DOCTYPE svg PUBLIC "-//W3C//DTD SVG 20010904//EN"
 "http://www.w3.org/TR/2001/REC-SVG-20010904/DTD/svg10.dtd">
<svg version="1.0" xmlns="http://www.w3.org/2000/svg"
 width="1000.000000pt" height="1000.000000pt" viewBox="0 0 1000.000000 1000.000000"
 preserveAspectRatio="xMidYMid meet">
<metadata>
Created by potrace 1.14, written by Peter Selinger 2001-2017
</metadata>
<g transform="translate(0.000000,1000.000000) scale(0.100000,-0.100000)"
fill="#000000" stroke="none">
<path d="M2718 7228 c-22 -8 -38 -32 -82 -121 -29 -62 -60 -129 -67 -149 -7
-21 -17 -38 -21 -38 -4 0 -8 -6 -8 -13 0 -7 -11 -37 -25 -65 -14 -28 -41 -85
-60 -127 -32 -69 -54 -115 -135 -290 -15 -33 -49 -107 -74 -165 -26 -58 -51
-114 -56 -125 -46 -100 -80 -178 -95 -220 -10 -27 -22 -54 -26 -60 -4 -5 -19
-41 -34 -80 -15 -38 -35 -88 -45 -110 -71 -163 -331 -899 -355 -1005 -2 -8
-15 -53 -29 -100 -21 -72 -111 -412 -121 -460 -49 -227 -57 -304 -43 -386 16
-86 85 -116 173 -75 70 33 176 149 271 296 32 50 62 92 66 93 4 2 8 7 8 12 0
11 179 300 196 318 8 7 14 18 14 24 0 5 15 33 34 61 18 29 91 149 161 267 70
118 138 231 150 250 12 19 55 89 96 155 40 66 77 122 81 123 4 2 8 8 8 14 0 8
70 116 112 173 97 131 201 256 273 329 91 93 192 176 213 176 7 0 12 5 12 10
0 14 46 12 58 -2 18 -23 25 -129 23 -333 -5 -395 -2 -509 14 -580 49 -223 96
-319 178 -362 79 -40 215 -20 332 49 68 40 262 224 344 326 19 23 36 41 38 39
2 -3 6 -36 8 -75 8 -127 53 -194 140 -209 69 -12 118 -3 198 36 80 39 212 120
272 168 17 13 35 27 40 31 20 14 151 120 175 141 79 70 139 122 166 148 17 15
67 60 110 98 43 39 109 100 146 137 38 37 68 64 68 61 0 -4 5 -2 12 5 7 7 16
12 21 12 9 0 7 -68 -2 -85 -3 -5 -6 -13 -7 -17 -1 -5 -3 -10 -4 -13 -1 -3 -3
-8 -4 -12 -4 -16 -68 -219 -76 -243 -5 -14 -30 -97 -56 -185 -26 -88 -53 -180
-60 -205 -7 -25 -20 -70 -29 -100 -22 -76 -21 -73 -28 -90 -3 -8 -19 -62 -36
-120 -92 -311 -110 -354 -188 -457 -27 -35 -97 -127 -156 -205 -59 -79 -113
-149 -119 -156 -5 -8 -44 -66 -85 -130 l-74 -117 -107 -28 c-59 -15 -116 -29
-127 -32 -39 -8 -641 -175 -775 -215 -496 -148 -902 -274 -930 -289 -11 -6
-125 -44 -230 -76 -3 -1 -12 -5 -20 -8 -8 -4 -55 -20 -105 -37 -49 -17 -98
-35 -107 -40 -10 -6 -26 -10 -36 -10 -10 0 -22 -3 -26 -7 -4 -5 -11 -8 -14 -8
-4 0 -20 -6 -37 -12 -62 -25 -90 -36 -100 -38 -11 -3 -180 -66 -257 -96 -27
-10 -48 -17 -48 -14 0 5 64 48 105 71 11 6 36 20 55 32 65 39 185 106 215 121
17 9 32 18 35 21 3 3 28 17 55 30 28 14 52 28 55 31 3 3 90 52 194 110 103 57
214 119 245 137 31 18 66 37 78 42 12 5 55 28 95 51 40 23 111 62 158 86 47
25 108 58 135 73 28 16 96 52 150 80 55 28 104 56 109 61 46 44 -176 -68 -599
-301 -27 -15 -81 -44 -120 -65 -38 -21 -74 -41 -80 -45 -10 -8 -58 -36 -130
-75 -22 -12 -116 -64 -210 -117 -93 -52 -226 -123 -295 -158 -165 -84 -210
-108 -226 -121 -8 -6 -14 -8 -14 -4 0 5 -8 2 -17 -6 -22 -17 -42 -28 -144 -81
-93 -48 -102 -65 -34 -58 11 1 110 35 220 75 110 40 227 83 260 94 33 11 90
31 128 45 37 13 67 22 67 19 0 -3 6 -1 13 4 9 8 125 48 167 58 3 1 78 25 168
54 90 29 175 55 190 57 14 3 40 11 57 19 16 8 50 19 75 25 25 6 112 32 195 56
82 25 158 47 170 49 11 2 20 4 20 5 0 1 7 3 15 5 8 2 56 15 105 30 50 14 101
28 115 30 14 3 36 10 50 15 21 8 57 17 210 56 23 5 79 21 140 38 30 9 66 18
80 21 14 3 59 14 100 25 41 12 86 23 99 26 14 3 28 7 31 9 4 2 20 7 36 9 16 3
99 24 184 45 85 22 155 39 156 38 0 -1 -25 -56 -57 -122 -138 -290 -177 -510
-108 -621 27 -44 79 -60 122 -37 48 24 122 108 182 205 75 121 199 375 268
548 42 106 63 146 75 147 10 1 67 13 127 28 61 14 148 35 195 46 47 11 117 27
155 36 39 9 77 17 85 18 8 1 22 5 30 8 8 3 31 9 50 12 19 3 71 14 115 25 44
11 93 22 108 25 16 2 56 12 90 20 34 9 73 18 87 20 24 4 74 15 300 64 52 12
104 23 115 26 11 2 31 7 45 10 14 3 39 8 55 11 17 3 77 16 135 29 58 13 173
38 255 55 83 18 159 34 170 37 11 2 34 6 50 9 17 3 46 9 65 14 19 5 50 12 67
15 18 3 61 12 95 19 35 8 77 17 93 20 30 5 48 8 140 26 28 5 68 12 90 16 22 3
47 7 55 9 8 3 33 7 55 10 47 7 83 13 110 19 11 2 52 7 90 12 39 4 72 8 75 9 3
1 34 5 70 9 36 4 79 10 95 12 26 4 106 10 214 18 42 3 63 30 50 64 -8 22 -11
22 -107 17 -119 -7 -164 -11 -327 -31 -45 -6 -297 -43 -335 -50 -14 -2 -38 -6
-55 -9 -16 -3 -111 -22 -210 -41 -208 -41 -187 -37 -290 -59 -44 -9 -89 -19
-100 -21 -11 -2 -31 -6 -45 -10 -14 -3 -34 -7 -45 -9 -11 -1 -38 -8 -60 -13
-22 -6 -76 -19 -120 -28 -44 -9 -87 -17 -95 -19 -8 -2 -69 -16 -135 -30 -66
-15 -128 -28 -138 -30 -10 -2 -27 -7 -38 -10 -10 -4 -31 -8 -47 -10 -15 -2
-27 -4 -27 -5 0 -1 -7 -3 -15 -5 -8 -1 -69 -15 -135 -30 -147 -33 -126 -28
-265 -60 -63 -14 -123 -28 -133 -30 -10 -2 -26 -6 -35 -9 -9 -3 -28 -7 -42
-10 -14 -2 -113 -25 -220 -51 -107 -25 -204 -48 -215 -51 -11 -2 -32 -6 -47
-10 -15 -3 -30 -5 -33 -5 -2 0 -23 -6 -45 -14 -22 -8 -40 -12 -40 -10 0 3 -12
0 -26 -6 -28 -10 -94 -22 -94 -17 0 2 12 35 26 73 14 39 27 75 28 82 1 7 5 16
9 19 4 4 7 14 7 23 0 22 74 219 103 278 22 43 103 160 131 189 6 6 25 28 41
49 93 119 390 425 539 557 27 23 61 54 75 66 14 13 51 46 81 72 30 27 70 62
89 79 19 17 38 31 42 31 5 0 1 -19 -7 -42 -9 -24 -17 -81 -19 -126 -5 -155 45
-255 153 -304 138 -63 288 4 385 172 53 93 64 179 42 338 -5 38 -4 43 19 51
13 6 44 13 67 16 96 14 113 17 136 26 13 5 23 7 23 4 0 -2 33 8 73 21 39 14
77 27 82 28 6 2 17 6 25 9 8 4 66 24 128 46 62 21 121 46 132 56 24 21 18 53
-14 82 -24 20 -28 21 -83 8 -32 -8 -104 -32 -160 -54 -57 -21 -103 -37 -103
-35 0 3 -13 -2 -29 -10 -15 -8 -39 -17 -52 -20 -13 -3 -42 -10 -64 -16 -22 -6
-109 -13 -193 -15 -163 -4 -202 -15 -202 -54 0 -10 21 -60 47 -112 69 -137 67
-210 -9 -335 -37 -61 -75 -86 -140 -91 -43 -3 -52 0 -83 29 -57 54 -66 157
-24 305 24 89 98 251 122 272 10 7 17 19 17 25 1 32 96 107 158 125 42 12 43
13 40 49 -1 20 -9 43 -16 51 -18 19 -68 17 -116 -3 -35 -16 -151 -121 -172
-156 -5 -8 -40 -42 -79 -75 -38 -33 -88 -76 -110 -96 -22 -20 -90 -81 -151
-136 -199 -179 -485 -458 -574 -560 -37 -42 -73 -66 -84 -56 -11 12 -6 42 25
150 17 60 32 117 35 128 2 11 20 74 39 140 20 66 38 127 40 135 19 74 144 460
154 475 3 6 6 12 6 15 1 3 8 28 17 55 9 28 25 85 34 128 16 70 16 82 4 105
-17 29 -60 47 -93 38 -12 -3 -46 -28 -75 -54 -163 -152 -191 -176 -206 -178
-20 -3 -23 2 -31 56 -26 177 -214 280 -424 232 -160 -36 -357 -171 -499 -342
-33 -39 -97 -137 -113 -172 -25 -57 -45 -83 -203 -267 -205 -238 -304 -336
-377 -373 -54 -27 -111 -44 -139 -42 -8 1 -23 2 -32 3 -48 3 -105 97 -122 201
-3 19 -8 45 -10 57 -19 90 -24 326 -15 668 6 248 -32 363 -126 381 -58 11
-124 -10 -205 -64 -113 -75 -325 -304 -471 -507 -43 -60 -83 -115 -89 -122 -5
-7 -10 -14 -10 -17 0 -3 -26 -45 -58 -93 -32 -49 -80 -124 -107 -168 -26 -44
-67 -109 -90 -145 -23 -36 -44 -69 -46 -75 -10 -24 -154 -261 -162 -266 -5 -3
-9 -10 -9 -15 0 -5 -47 -87 -104 -183 -57 -95 -104 -178 -104 -182 0 -5 -4 -9
-10 -9 -5 0 -10 -4 -10 -10 0 -24 -167 -264 -254 -364 -46 -52 -85 -72 -87
-43 -4 52 6 125 26 197 22 78 33 122 39 160 1 8 5 24 9 35 3 11 8 31 11 45 23
133 229 818 266 882 6 10 10 23 10 29 0 6 6 25 14 42 7 18 46 118 86 222 104
271 226 554 437 1015 14 30 82 179 150 330 69 151 134 291 144 311 23 46 29
78 18 106 -11 30 -38 42 -71 31z m2525 -1403 c56 -26 80 -74 85 -166 6 -123
-4 -141 -143 -264 -44 -38 -89 -78 -100 -88 -61 -56 -274 -222 -346 -270 -107
-70 -204 -119 -237 -119 -68 0 -85 109 -43 273 27 103 104 265 162 339 63 80
144 155 224 208 98 66 135 84 220 105 38 10 141 0 178 -18z m-203 -2175 c0
-16 -4 -32 -10 -35 -5 -3 -10 -15 -10 -25 0 -14 -13 -23 -47 -33 -27 -7 -50
-12 -52 -10 -2 2 11 24 29 51 68 96 90 109 90 52z m-79 -218 c-11 -26 -31 -74
-45 -107 -15 -33 -26 -60 -25 -60 5 0 -116 -231 -123 -233 -4 -2 -8 -8 -8 -14
0 -11 -86 -155 -107 -180 -24 -27 -45 -11 -39 31 7 51 52 200 70 236 9 17 16
33 16 37 0 8 103 218 132 270 21 37 32 44 79 53 12 2 23 6 25 8 2 1 12 3 23 4
20 2 20 1 2 -45z"/>
<path d="M6658 6035 c-2 -2 -19 -6 -39 -9 -47 -7 -123 -47 -127 -66 -1 -9 4
-24 12 -35 14 -19 16 -19 63 -3 116 41 169 35 348 -42 158 -68 216 -77 311
-51 43 12 62 27 58 49 -1 6 -2 16 -3 21 -2 18 -36 22 -83 9 -64 -16 -123 -3
-259 55 -57 24 -126 49 -154 56 -52 12 -122 21 -127 16z"/>
</g>
</svg>
