<svg width="500" height="300" viewBox="0 0 500 300" fill="none" xmlns="http://www.w3.org/2000/svg">
<path d="M361.315 104.117C359.054 105.127 356.752 105.335 354.45 104.747C352.148 104.164 349.685 103.237 347.159 101.987C344.039 100.44 340.705 99.2886 337.159 98.5282C333.554 97.8147 329.752 98.5022 325.705 100.585C325.185 100.882 324.862 101.315 324.679 101.872C324.549 102.434 324.586 102.919 324.882 103.434C325.185 103.955 325.56 104.273 326.117 104.455C326.685 104.585 327.216 104.554 327.731 104.257C330.872 102.627 333.856 102.091 336.731 102.757C339.612 103.372 342.534 104.414 345.409 105.82C346.945 106.565 348.549 107.21 350.153 107.856C351.763 108.45 353.346 108.882 355.007 109.117C357.914 109.518 360.622 109.101 363.117 107.914C363.627 107.669 364.002 107.247 364.179 106.742C364.362 106.184 364.33 105.648 364.086 105.138C363.846 104.575 363.414 104.252 362.909 104.075C362.362 103.841 361.825 103.872 361.315 104.117Z" fill="black"/>
<path d="M433.161 185.001C409.552 186.142 385.979 190.939 362.734 195.944C339.76 200.897 316.828 206.007 293.953 211.293C271.104 216.574 248.318 222.074 225.698 228.022C202.802 234.053 180.099 240.517 157.661 247.564C134.495 254.835 111.698 262.944 89.2135 271.34C86.1458 272.481 83.0521 273.585 80 274.746C79.2708 275.022 81.401 275.277 81.9479 275.079C85.0885 273.939 88.1927 272.731 91.3021 271.533C109.594 264.741 128.281 258.611 147.234 252.918C169.797 246.147 192.719 239.949 215.672 234.079C238.703 228.189 261.87 222.663 285.099 217.371C308.208 212.106 331.375 207.079 354.557 202.111C375.615 197.6 396.776 192.913 418.161 190.533C422.5 190.05 424 189.501 433.594 189.241C435.245 188.757 434.896 184.918 433.161 185.001Z" fill="black"/>
<path d="M81.5 275C82.1558 274.805 87.6938 272.415 89 271.5C97.3948 265.621 118.522 254.385 127.432 249.314C143.138 240.372 159.073 231.836 175.033 223.419C175.319 223.265 174.267 222.79 173.855 223C158.425 230.892 143.196 239.219 128.084 247.799C120.356 252.184 112.564 256.731 104.644 260.693C100.785 262.616 96.9454 264.559 93.1514 266.634C91.056 267.78 88.96 268.938 86.874 270.102C84.4438 271.461 81.8867 272.548 79.5 273.971C77.7074 275.038 80.8442 275.195 81.5 275Z" fill="black"/>
<path d="M77.1904 218.992C77.9404 218.992 78.6904 218.992 78.9404 218.742C80.9404 218.242 82.6904 217.242 84.4404 215.492C85.6904 214.242 86.9404 212.742 88.1904 211.492C89.4404 210.242 90.4404 208.742 91.4404 207.492C93.6904 204.242 95.9404 200.742 98.1904 197.242C100.44 193.742 102.44 190.242 104.69 186.742C111.69 175.742 118.19 164.492 124.94 153.242C134.69 137.242 145.44 119.242 159.69 106.992C161.69 105.242 163.69 103.992 165.69 102.742C165.94 102.492 166.19 102.492 166.69 102.492C167.94 102.492 168.69 102.992 168.94 104.242C169.19 105.492 169.19 106.492 169.44 107.492C169.44 108.492 169.44 109.492 169.69 110.742V124.742C168.94 133.492 169.19 141.242 170.44 149.992C172.69 159.242 174.69 167.992 184.69 167.992C184.94 167.992 185.44 167.992 185.94 167.742C186.19 167.742 186.69 167.742 187.19 167.742C190.94 166.992 194.44 165.492 197.69 163.242C203.94 158.992 224.94 135.492 227.69 128.492C227.94 127.242 227.69 126.242 226.44 125.742C225.94 125.242 225.44 124.992 224.69 124.992C222.94 124.992 220.94 128.242 220.19 129.242C215.19 135.492 199.44 154.242 194.69 157.492C191.94 159.242 189.44 160.992 185.69 161.242C182.94 161.242 181.44 160.992 179.69 158.242C177.94 154.992 177.44 151.742 176.69 147.992C175.44 138.242 175.19 129.242 175.94 119.492C176.19 116.742 176.19 113.992 176.19 111.242C176.19 108.492 175.94 105.742 175.44 102.992C174.44 97.9917 171.94 95.4917 167.94 95.4917C158.19 95.4917 141.94 115.992 136.44 123.492C129.44 133.242 123.19 143.492 116.94 153.742L95.1904 190.242C90.9404 196.992 86.6904 203.492 80.9404 209.242C80.4404 209.742 79.9404 209.742 79.6904 209.492C78.9404 209.492 78.6904 209.242 78.6904 208.492C78.9404 207.242 78.9404 206.242 78.9404 205.242C78.9404 203.992 79.1904 202.992 79.4404 201.992C80.6904 197.742 81.6904 193.242 82.6904 188.992C83.6904 184.492 84.6904 179.992 85.9404 175.742C94.6904 144.492 106.44 115.242 120.19 85.4917L137.69 46.9917C138.19 45.9917 138.69 44.9917 139.19 43.9917C139.69 42.9917 139.94 41.9917 139.69 40.7417C139.44 39.4917 138.94 38.9917 138.44 38.7417C137.69 38.4917 137.44 38.2417 137.19 38.2417C136.69 38.2417 136.19 38.4917 135.44 38.7417C134.44 39.4917 133.69 40.4917 133.44 41.4917C132.94 42.4917 132.44 43.4917 131.94 44.2417C127.69 53.9917 123.19 63.2417 118.94 72.4917C99.6904 113.492 82.9404 155.742 73.1904 199.992C72.1904 204.992 71.1904 209.742 72.1904 214.742C72.6904 217.492 74.4404 218.992 77.1904 218.992Z" fill="black"/>
<path d="M229.692 269.242C238.442 269.242 253.192 234.492 256.192 225.742C257.942 221.242 259.442 216.742 260.942 212.242C262.442 207.742 263.942 203.242 265.692 198.742C268.942 188.492 293.442 164.242 301.692 156.742C310.442 148.992 318.442 141.992 326.692 134.242C327.192 133.742 327.692 133.242 328.442 132.492C328.942 131.992 329.442 131.492 329.942 130.742C330.942 129.492 330.942 128.242 329.942 126.992C329.442 126.242 328.692 125.742 327.692 125.742C327.442 125.742 326.942 125.992 326.192 126.242L322.442 129.242C307.692 141.992 293.442 154.992 280.192 168.992C279.442 169.742 278.692 170.742 278.192 171.492C277.442 172.242 276.442 172.742 275.192 172.992C274.442 171.242 274.942 169.992 275.692 168.242C279.942 152.242 284.442 136.492 290.192 120.492C290.942 118.742 291.442 116.742 291.942 114.742C292.442 112.742 292.942 110.742 293.442 108.742C293.692 106.992 293.192 105.492 291.442 104.492C290.942 104.242 290.192 103.992 289.442 103.992C288.442 103.992 287.692 104.242 286.942 104.992C285.192 106.242 283.692 107.742 282.192 109.242C280.442 110.742 278.942 112.242 277.192 113.742C276.942 113.992 276.442 114.492 276.192 114.992C275.692 115.492 274.942 115.742 274.192 115.742C273.692 115.742 273.192 115.742 272.942 115.492C272.942 105.742 265.192 100.742 256.442 100.742C252.442 100.742 248.692 101.992 244.942 103.742C229.942 111.492 220.442 123.492 216.192 139.742C215.192 144.492 214.692 148.742 215.692 153.492C216.942 159.242 220.692 160.742 225.942 160.742C231.942 160.242 245.442 150.742 250.442 146.492C255.192 142.742 259.692 138.742 264.192 134.742C268.442 130.742 272.942 126.742 277.442 122.742C278.192 121.992 278.942 120.992 279.692 120.242C280.442 119.492 281.442 118.742 282.692 118.492C283.442 120.742 282.942 121.992 282.192 123.742C278.942 133.742 275.942 143.742 273.192 153.492C270.192 163.242 267.192 173.242 264.192 183.242C262.942 187.992 260.442 192.242 257.192 196.242C244.692 211.242 229.442 233.242 224.692 252.492C223.692 256.742 223.692 260.992 224.442 264.742C225.442 267.742 227.192 269.242 229.692 269.242ZM231.442 258.992C231.192 258.742 231.192 258.742 230.942 258.492C230.692 258.242 230.442 258.242 230.442 257.992C230.692 257.242 230.692 256.742 230.692 255.992C230.692 255.242 230.942 254.742 231.192 253.992C233.942 241.992 243.192 224.992 250.942 215.492C251.692 215.742 252.192 216.242 252.192 216.742C252.192 217.242 252.192 217.742 251.942 217.992C247.192 231.742 241.442 244.492 233.692 256.742C233.442 257.492 232.942 257.992 232.192 258.742C231.942 258.742 231.942 258.742 231.942 258.992C231.692 258.992 231.692 258.992 231.442 258.992ZM224.942 154.242C223.192 154.242 222.192 152.992 221.942 150.742C221.692 147.992 221.692 145.492 222.192 143.492C225.442 127.742 234.442 116.242 248.692 109.242C251.442 108.242 253.442 107.492 256.192 107.492C261.192 107.492 265.692 109.242 266.442 114.992V119.242C266.942 121.992 265.692 124.742 262.442 127.492C254.442 134.492 246.442 141.742 237.692 147.742C234.442 149.992 230.942 151.992 227.192 153.742C226.192 153.992 225.442 154.242 224.942 154.242Z" fill="black"/>
<path d="M328.693 168.242C330.943 168.242 333.443 167.492 335.693 166.242C338.943 163.992 341.443 161.242 343.193 157.492C345.443 152.742 345.943 147.992 344.943 143.242C344.193 138.992 343.943 138.992 348.693 138.242C353.943 137.742 358.693 136.492 363.443 134.742C367.943 132.992 372.693 131.492 377.443 129.742C379.693 128.992 380.193 127.492 379.443 125.742C378.693 124.492 377.443 123.742 376.193 123.742L372.193 124.742C369.943 125.492 367.693 126.492 365.443 127.242C363.193 127.992 360.693 128.992 358.443 129.742C353.693 131.242 349.193 131.992 344.443 131.992H336.693C334.943 132.242 333.443 133.992 334.193 135.742C334.943 137.492 335.693 138.992 336.693 140.742C340.443 146.492 339.193 151.742 335.943 156.992C333.693 160.992 331.193 161.492 327.193 161.492C323.943 160.742 322.193 157.742 322.193 152.992C322.193 150.242 322.443 147.742 323.193 145.742C324.193 141.492 325.943 137.242 328.193 132.992C330.943 128.742 333.193 124.492 338.943 123.492C340.693 123.242 340.693 121.992 340.443 120.242C340.193 118.992 339.443 117.992 337.693 117.742C336.443 117.742 335.443 117.992 334.443 118.492C324.693 122.242 316.443 140.992 315.693 151.242C315.443 153.242 315.693 155.492 316.193 157.742C317.443 164.492 322.693 168.242 328.693 168.242Z" fill="black"/>
</svg>
