<svg xmlns="http://www.w3.org/2000/svg" xmlns:xlink="http://www.w3.org/1999/xlink" width="500" zoomAndPan="magnify" viewBox="0 0 375 225" height="300" preserveAspectRatio="xMidYMid meet" version="1.0"><defs><g/><clipPath id="8b11eb9a9d"><path d="M 48 162 L 321.839844 162 L 321.839844 183.4375 L 48 183.4375 Z M 48 162 " clip-rule="nonzero"/></clipPath></defs><g fill="#000000" fill-opacity="1"><g transform="translate(53.767798, 135.556263)"><g><path d="M 4.125 28.6875 C 4.6875 28.6875 5.25 28.6875 5.4375 28.5 C 6.9375 28.125 8.25 27.375 9.5625 26.0625 C 10.5 25.125 11.4375 24 12.375 23.0625 C 13.3125 22.125 14.0625 21 14.8125 20.0625 C 16.5 17.625 18.1875 15 19.875 12.375 C 21.5625 9.75 23.0625 7.125 24.75 4.5 C 30 -3.75 34.875 -12.1875 39.9375 -20.625 C 47.25 -32.625 55.3125 -46.125 66 -55.3125 C 67.5 -56.625 69 -57.5625 70.5 -58.5 C 70.6875 -58.6875 70.875 -58.6875 71.25 -58.6875 C 72.1875 -58.6875 72.75 -58.3125 72.9375 -57.375 C 73.125 -56.4375 73.125 -55.6875 73.3125 -54.9375 C 73.3125 -54.1875 73.3125 -53.4375 73.5 -52.5 L 73.5 -42 C 72.9375 -35.4375 73.125 -29.625 74.0625 -23.0625 C 75.75 -16.125 77.25 -9.5625 84.75 -9.5625 C 84.9375 -9.5625 85.3125 -9.5625 85.6875 -9.75 C 85.875 -9.75 86.25 -9.75 86.625 -9.75 C 89.4375 -10.3125 92.0625 -11.4375 94.5 -13.125 C 99.1875 -16.3125 114.9375 -33.9375 117 -39.1875 C 117.1875 -40.125 117 -40.875 116.0625 -41.25 C 115.6875 -41.625 115.3125 -41.8125 114.75 -41.8125 C 113.4375 -41.8125 111.9375 -39.375 111.375 -38.625 C 107.625 -33.9375 95.8125 -19.875 92.25 -17.4375 C 90.1875 -16.125 88.3125 -14.8125 85.5 -14.625 C 83.4375 -14.625 82.3125 -14.8125 81 -16.875 C 79.6875 -19.3125 79.3125 -21.75 78.75 -24.5625 C 77.8125 -31.875 77.625 -38.625 78.1875 -45.9375 C 78.375 -48 78.375 -50.0625 78.375 -52.125 C 78.375 -54.1875 78.1875 -56.25 77.8125 -58.3125 C 77.0625 -62.0625 75.1875 -63.9375 72.1875 -63.9375 C 64.875 -63.9375 52.6875 -48.5625 48.5625 -42.9375 C 43.3125 -35.625 38.625 -27.9375 33.9375 -20.25 L 17.625 7.125 C 14.4375 12.1875 11.25 17.0625 6.9375 21.375 C 6.5625 21.75 6.1875 21.75 6 21.5625 C 5.4375 21.5625 5.25 21.375 5.25 20.8125 C 5.4375 19.875 5.4375 19.125 5.4375 18.375 C 5.4375 17.4375 5.625 16.6875 5.8125 15.9375 C 6.75 12.75 7.5 9.375 8.25 6.1875 C 9 2.8125 9.75 -0.5625 10.6875 -3.75 C 17.25 -27.1875 26.0625 -49.125 36.375 -71.4375 L 49.5 -100.3125 C 49.875 -101.0625 50.25 -101.8125 50.625 -102.5625 C 51 -103.3125 51.1875 -104.0625 51 -105 C 50.8125 -105.9375 50.4375 -106.3125 50.0625 -106.5 C 49.5 -106.6875 49.3125 -106.875 49.125 -106.875 C 48.75 -106.875 48.375 -106.6875 47.8125 -106.5 C 47.0625 -105.9375 46.5 -105.1875 46.3125 -104.4375 C 45.9375 -103.6875 45.5625 -102.9375 45.1875 -102.375 C 42 -95.0625 38.625 -88.125 35.4375 -81.1875 C 21 -50.4375 8.4375 -18.75 1.125 14.4375 C 0.375 18.1875 -0.375 21.75 0.375 25.5 C 0.75 27.5625 2.0625 28.6875 4.125 28.6875 Z M 4.125 28.6875 "/></g></g></g><g fill="#000000" fill-opacity="1"><g transform="translate(161.394069, 135.556263)"><g><path d="M 10.875 66.375 C 17.4375 66.375 28.5 40.3125 30.75 33.75 C 32.0625 30.375 33.1875 27 34.3125 23.625 C 35.4375 20.25 36.5625 16.875 37.875 13.5 C 40.3125 5.8125 58.6875 -12.375 64.875 -18 C 71.4375 -23.8125 77.4375 -29.0625 83.625 -34.875 C 84 -35.25 84.375 -35.625 84.9375 -36.1875 C 85.3125 -36.5625 85.6875 -36.9375 86.0625 -37.5 C 86.8125 -38.4375 86.8125 -39.375 86.0625 -40.3125 C 85.6875 -40.875 85.125 -41.25 84.375 -41.25 C 84.1875 -41.25 83.8125 -41.0625 83.25 -40.875 L 80.4375 -38.625 C 69.375 -29.0625 58.6875 -19.3125 48.75 -8.8125 C 48.1875 -8.25 47.625 -7.5 47.25 -6.9375 C 46.6875 -6.375 45.9375 -6 45 -5.8125 C 44.4375 -7.125 44.8125 -8.0625 45.375 -9.375 C 48.5625 -21.375 51.9375 -33.1875 56.25 -45.1875 C 56.8125 -46.5 57.1875 -48 57.5625 -49.5 C 57.9375 -51 58.3125 -52.5 58.6875 -54 C 58.875 -55.3125 58.5 -56.4375 57.1875 -57.1875 C 56.8125 -57.375 56.25 -57.5625 55.6875 -57.5625 C 54.9375 -57.5625 54.375 -57.375 53.8125 -56.8125 C 52.5 -55.875 51.375 -54.75 50.25 -53.625 C 48.9375 -52.5 47.8125 -51.375 46.5 -50.25 C 46.3125 -50.0625 45.9375 -49.6875 45.75 -49.3125 C 45.375 -48.9375 44.8125 -48.75 44.25 -48.75 C 43.875 -48.75 43.5 -48.75 43.3125 -48.9375 C 43.3125 -56.25 37.5 -60 30.9375 -60 C 27.9375 -60 25.125 -59.0625 22.3125 -57.75 C 11.0625 -51.9375 3.9375 -42.9375 0.75 -30.75 C 0 -27.1875 -0.375 -24 0.375 -20.4375 C 1.3125 -16.125 4.125 -15 8.0625 -15 C 12.5625 -15.375 22.6875 -22.5 26.4375 -25.6875 C 30 -28.5 33.375 -31.5 36.75 -34.5 C 39.9375 -37.5 43.3125 -40.5 46.6875 -43.5 C 47.25 -44.0625 47.8125 -44.8125 48.375 -45.375 C 48.9375 -45.9375 49.6875 -46.5 50.625 -46.6875 C 51.1875 -45 50.8125 -44.0625 50.25 -42.75 C 47.8125 -35.25 45.5625 -27.75 43.5 -20.4375 C 41.25 -13.125 39 -5.625 36.75 1.875 C 35.8125 5.4375 33.9375 8.625 31.5 11.625 C 22.125 22.875 10.6875 39.375 7.125 53.8125 C 6.375 57 6.375 60.1875 6.9375 63 C 7.6875 65.25 9 66.375 10.875 66.375 Z M 12.1875 58.6875 C 12 58.5 12 58.5 11.8125 58.3125 C 11.625 58.125 11.4375 58.125 11.4375 57.9375 C 11.625 57.375 11.625 57 11.625 56.4375 C 11.625 55.875 11.8125 55.5 12 54.9375 C 14.0625 45.9375 21 33.1875 26.8125 26.0625 C 27.375 26.25 27.75 26.625 27.75 27 C 27.75 27.375 27.75 27.75 27.5625 27.9375 C 24 38.25 19.6875 47.8125 13.875 57 C 13.6875 57.5625 13.3125 57.9375 12.75 58.5 C 12.5625 58.5 12.5625 58.5 12.5625 58.6875 C 12.375 58.6875 12.375 58.6875 12.1875 58.6875 Z M 7.3125 -19.875 C 6 -19.875 5.25 -20.8125 5.0625 -22.5 C 4.875 -24.5625 4.875 -26.4375 5.25 -27.9375 C 7.6875 -39.75 14.4375 -48.375 25.125 -53.625 C 27.1875 -54.375 28.6875 -54.9375 30.75 -54.9375 C 34.5 -54.9375 37.875 -53.625 38.4375 -49.3125 L 38.4375 -46.125 C 38.8125 -44.0625 37.875 -42 35.4375 -39.9375 C 29.4375 -34.6875 23.4375 -29.25 16.875 -24.75 C 14.4375 -23.0625 11.8125 -21.5625 9 -20.25 C 8.25 -20.0625 7.6875 -19.875 7.3125 -19.875 Z M 7.3125 -19.875 "/></g></g></g><g fill="#000000" fill-opacity="1"><g transform="translate(238.64498, 135.556263)"><g><path d="M 7.875 -9.375 C 9.5625 -9.375 11.4375 -9.9375 13.125 -10.875 C 15.5625 -12.5625 17.4375 -14.625 18.75 -17.4375 C 20.4375 -21 20.8125 -24.5625 20.0625 -28.125 C 19.5 -31.3125 19.3125 -31.3125 22.875 -31.875 C 26.8125 -32.25 30.375 -33.1875 33.9375 -34.5 C 37.3125 -35.8125 40.875 -36.9375 44.4375 -38.25 C 46.125 -38.8125 46.5 -39.9375 45.9375 -41.25 C 45.375 -42.1875 44.4375 -42.75 43.5 -42.75 L 40.5 -42 C 38.8125 -41.4375 37.125 -40.6875 35.4375 -40.125 C 33.75 -39.5625 31.875 -38.8125 30.1875 -38.25 C 26.625 -37.125 23.25 -36.5625 19.6875 -36.5625 L 13.875 -36.5625 C 12.5625 -36.375 11.4375 -35.0625 12 -33.75 C 12.5625 -32.4375 13.125 -31.3125 13.875 -30 C 16.6875 -25.6875 15.75 -21.75 13.3125 -17.8125 C 11.625 -14.8125 9.75 -14.4375 6.75 -14.4375 C 4.3125 -15 3 -17.25 3 -20.8125 C 3 -22.875 3.1875 -24.75 3.75 -26.25 C 4.5 -29.4375 5.8125 -32.625 7.5 -35.8125 C 9.5625 -39 11.25 -42.1875 15.5625 -42.9375 C 16.875 -43.125 16.875 -44.0625 16.6875 -45.375 C 16.5 -46.3125 15.9375 -47.0625 14.625 -47.25 C 13.6875 -47.25 12.9375 -47.0625 12.1875 -46.6875 C 4.875 -43.875 -1.3125 -29.8125 -1.875 -22.125 C -2.0625 -20.625 -1.875 -18.9375 -1.5 -17.25 C -0.5625 -12.1875 3.375 -9.375 7.875 -9.375 Z M 7.875 -9.375 "/></g></g></g><g fill="#000000" fill-opacity="1"><g transform="translate(236.793707, 98.377483)"><g><path d="M 34.191406 -20.289062 C 32.496094 -19.53125 30.769531 -19.375 29.042969 -19.816406 C 27.316406 -20.253906 25.46875 -20.949219 23.574219 -21.886719 C 21.234375 -23.046875 18.734375 -23.910156 16.074219 -24.480469 C 13.371094 -25.015625 10.519531 -24.5 7.484375 -22.9375 C 7.09375 -22.714844 6.851562 -22.390625 6.714844 -21.972656 C 6.617188 -21.550781 6.644531 -21.1875 6.867188 -20.800781 C 7.09375 -20.410156 7.375 -20.171875 7.792969 -20.035156 C 8.21875 -19.9375 8.617188 -19.960938 9.003906 -20.183594 C 11.359375 -21.40625 13.597656 -21.808594 15.753906 -21.308594 C 17.914062 -20.847656 20.105469 -20.066406 22.261719 -19.011719 C 23.414062 -18.453125 24.617188 -17.96875 25.820312 -17.484375 C 27.027344 -17.039062 28.214844 -16.714844 29.460938 -16.539062 C 31.640625 -16.238281 33.671875 -16.550781 35.542969 -17.441406 C 35.925781 -17.625 36.207031 -17.941406 36.339844 -18.320312 C 36.476562 -18.738281 36.453125 -19.140625 36.269531 -19.523438 C 36.089844 -19.945312 35.765625 -20.1875 35.386719 -20.320312 C 34.976562 -20.496094 34.574219 -20.472656 34.191406 -20.289062 Z M 34.191406 -20.289062 "/></g></g></g><g clip-path="url(#8b11eb9a9d)"><path fill="#000000" d="M 320.554688 164.058594 C 303.007812 161.71875 284.996094 162.089844 267.203125 162.660156 C 249.609375 163.226562 232.027344 163.914062 214.464844 164.738281 C 196.921875 165.566406 179.398438 166.5625 161.933594 167.914062 C 144.257812 169.285156 126.664062 171.007812 109.183594 173.195312 C 91.140625 175.449219 73.253906 178.371094 55.5625 181.546875 C 53.152344 181.980469 50.722656 182.378906 48.316406 182.824219 C 47.742188 182.933594 49.28125 183.40625 49.710938 183.335938 C 52.175781 182.917969 54.625 182.4375 57.074219 181.972656 C 71.464844 179.414062 86.054688 177.402344 100.78125 175.746094 C 118.316406 173.78125 136.035156 172.285156 153.730469 171.039062 C 171.492188 169.785156 189.304688 168.824219 207.128906 168.039062 C 224.855469 167.261719 242.601562 166.667969 260.347656 166.117188 C 276.46875 165.617188 292.6875 165.003906 308.761719 166.125 C 307.730469 166.300781 306.703125 166.476562 305.675781 166.65625 C 299.503906 167.742188 293.046875 168.347656 286.710938 168.90625 C 275.550781 169.886719 264.320312 170.609375 253.097656 171.265625 C 252.894531 171.277344 253.445312 171.757812 253.734375 171.746094 C 264.542969 171.238281 275.304688 170.460938 286.042969 169.527344 C 291.53125 169.054688 297.089844 168.511719 302.621094 168.296875 C 305.3125 168.191406 308 168.078125 310.679688 167.882812 C 312.164062 167.777344 313.644531 167.664062 315.125 167.546875 C 316.84375 167.40625 318.59375 167.433594 320.304688 167.253906 C 321.585938 167.117188 321.847656 164.230469 320.554688 164.058594 " fill-opacity="1" fill-rule="nonzero"/></g></svg>